<svg width="162" height="31" viewBox="0 0 162 31" fill="none" xmlns="http://www.w3.org/2000/svg">
<path d="M8.775 0.0399989H22.455L31.41 31H20.835L19.665 25.06H11.655L10.35 31H0.225L8.775 0.0399989ZM18.585 19.525L15.66 5.98L12.6 19.525H18.585ZM34.3898 0.0399989H44.1098V24.16H54.8648V31H34.3898V0.0399989ZM58.6037 0.0399989H69.7637C74.3837 0.0399989 77.9537 0.939999 80.4737 2.74C83.0237 4.54 84.2987 7.06 84.2987 10.3C84.2987 12.34 83.6687 14.125 82.4087 15.655C81.1787 17.185 79.4837 18.37 77.3237 19.21C75.1937 20.02 72.8237 20.425 70.2137 20.425H68.3237V31H58.6037V0.0399989ZM70.2587 14.17C71.8487 14.17 73.0787 13.84 73.9487 13.18C74.8187 12.52 75.2537 11.56 75.2537 10.3C75.2537 9.04 74.8187 8.095 73.9487 7.465C73.1087 6.835 71.8787 6.52 70.2587 6.52H68.3237V14.08C68.9237 14.14 69.5687 14.17 70.2587 14.17ZM87.8273 0.0399989H98.2223V31H87.8273V0.0399989ZM104.087 0.0399989H113.132L125.462 16.735V0.0399989H133.517V31H124.517L112.097 14.89V31H104.087V0.0399989ZM139.375 0.0399989H161.11V6.88H150.31V12.505H160.165V18.175H150.31V24.16H161.11V31H139.375V0.0399989Z" fill="white"/>
</svg>
