<svg width="23" height="22" viewBox="0 0 23 22" fill="none" xmlns="http://www.w3.org/2000/svg">
<path d="M6.19498 13.8436C5.89666 13.8637 5.59745 13.8199 5.31832 13.7153C5.03918 13.6106 4.78689 13.4477 4.57911 13.2379C4.17957 12.7472 3.98163 12.1288 4.02387 11.5035C3.97983 10.8628 4.18566 10.2295 4.60009 9.73066C4.81619 9.51563 5.07742 9.34878 5.36586 9.24157C5.65429 9.13436 5.96309 9.08933 6.27105 9.10958C6.72945 9.10136 7.184 9.19256 7.60187 9.37661L7.29933 10.1564C6.97001 10.0172 6.61802 9.93602 6.25968 9.91664C5.44912 9.91664 5.04691 10.4405 5.04691 11.4873C5.01784 11.8942 5.1236 12.2994 5.34857 12.6433C5.45367 12.7731 5.58948 12.8762 5.74435 12.9437C5.89923 13.0111 6.06855 13.0409 6.23782 13.0306C6.67821 13.0299 7.11108 12.9191 7.49519 12.7089V13.5544C7.31828 13.6561 7.12581 13.7296 6.92509 13.772C6.68498 13.8245 6.43925 13.8485 6.19323 13.8436H6.19498Z" fill="#96CA4B"/>
<path d="M10.2416 13.7617H9.24658V7.33655H10.2416V13.7617Z" fill="#96CA4B"/>
<path d="M11.8348 15.7906C11.5827 15.7981 11.3312 15.7629 11.0915 15.6865V14.9186C11.2829 14.9685 11.4801 14.994 11.6783 14.9946C12.1032 14.9946 12.3157 14.7602 12.3157 14.2916V9.19141H13.3107V14.3555C13.3248 14.5496 13.2984 14.7444 13.233 14.9281C13.1676 15.1119 13.0647 15.2808 12.9304 15.4245C12.7818 15.5535 12.6084 15.6523 12.4203 15.7151C12.2322 15.7779 12.0331 15.8036 11.8348 15.7906Z" fill="#5F7FBF"/>
<path d="M12.2536 7.98832C12.249 7.91572 12.2596 7.84296 12.2847 7.77447C12.3098 7.70598 12.3489 7.64318 12.3997 7.58989C12.4561 7.53999 12.5223 7.50172 12.5943 7.47738C12.6662 7.45305 12.7425 7.44314 12.8185 7.44826C12.8931 7.44078 12.9684 7.44961 13.039 7.4741C13.1097 7.49859 13.1738 7.53814 13.2268 7.58987C13.2798 7.64159 13.3204 7.70419 13.3455 7.77311C13.3706 7.84204 13.3796 7.91556 13.372 7.98832C13.3782 8.13265 13.326 8.27358 13.2268 8.38078C13.1718 8.42969 13.1074 8.46741 13.0373 8.49173C12.9672 8.51605 12.8928 8.52648 12.8185 8.52241C12.6652 8.53073 12.5148 8.47986 12.3997 8.38078C12.349 8.32863 12.31 8.26688 12.2848 8.19936C12.2597 8.13185 12.2491 8.06001 12.2536 7.98832Z" fill="#5F7FBF"/>
<path d="M18.5203 12.4631C18.5301 12.6605 18.4898 12.8573 18.403 13.0359C18.3163 13.2145 18.1856 13.3694 18.0228 13.4869C17.5961 13.7498 17.095 13.874 16.5914 13.8418C16.0749 13.8628 15.5603 13.7676 15.0875 13.5637V12.7233C15.5665 12.9535 16.0909 13.08 16.6246 13.0945C17.2367 13.0945 17.5419 12.9145 17.5419 12.5544C17.5451 12.4493 17.5094 12.3467 17.4413 12.2652C17.3446 12.1668 17.231 12.0856 17.1056 12.0255C16.8958 11.9195 16.6794 11.8266 16.4576 11.7473C16.0525 11.621 15.6792 11.4129 15.362 11.1365C15.1664 10.9184 15.0643 10.6351 15.077 10.3456C15.0714 10.1661 15.1135 9.98832 15.1992 9.82942C15.2848 9.67052 15.4111 9.53592 15.5657 9.43866C15.9617 9.20346 16.4215 9.09129 16.8843 9.11701C17.4225 9.11494 17.9547 9.22671 18.4443 9.44463L18.1199 10.1749C17.7187 9.99577 17.2864 9.89215 16.8459 9.86951C16.3212 9.86951 16.0589 10.0171 16.0589 10.3063C16.0602 10.3791 16.0798 10.4504 16.116 10.5141C16.1521 10.5777 16.2037 10.6318 16.2661 10.6715C16.5483 10.8389 16.8482 10.9759 17.1606 11.0802C17.4556 11.1834 17.7384 11.317 18.0044 11.4786C18.1656 11.5881 18.2994 11.7316 18.3962 11.8983C18.4858 12.0744 18.5299 12.2692 18.5247 12.4657L18.5203 12.4631Z" fill="#5F7FBF"/>
<path d="M10.4016 1.44028L10.5546 1.42663V0.00354004L10.3736 0.0180439C7.54701 0.243653 4.91081 1.49862 2.98889 3.53356C1.06697 5.56851 0 8.23449 0 11.0017C0 13.769 1.06697 16.435 2.98889 18.4699C4.91081 20.5049 7.54701 21.7598 10.3736 21.9854L10.5546 21.9999V20.5709L10.4016 20.5581C7.95494 20.3439 5.67895 19.2442 4.02136 17.4752C2.36376 15.7062 1.44456 13.3961 1.44456 10.9992C1.44456 8.60228 2.36376 6.29213 4.02136 4.52317C5.67895 2.7542 7.95494 1.65446 10.4016 1.44028Z" fill="#96CA4B"/>
<path d="M19.5574 3.51258C17.6388 1.48483 15.0082 0.23605 12.1889 0.0146257L12.0079 0.00012207V1.4266L12.1609 1.44025C14.6083 1.65446 16.8849 2.75447 18.543 4.52389C20.201 6.29332 21.1205 8.60407 21.1205 11.0016C21.1205 13.3991 20.201 15.7099 18.543 17.4793C16.8849 19.2487 14.6083 20.3487 12.1609 20.5629L12.0079 20.5766V21.9997L12.1889 21.9852C14.3018 21.8191 16.3242 21.076 18.0244 19.8408C19.7247 18.6056 21.0342 16.9282 21.8031 15.0008C22.5719 13.0733 22.769 10.9735 22.3719 8.94185C21.9747 6.91016 20.9993 5.02862 19.5574 3.51258Z" fill="#5F7FBF"/>
</svg>
