<svg width="267" height="21" viewBox="0 0 267 21" fill="none" xmlns="http://www.w3.org/2000/svg">
<line y1="12.5" x2="10" y2="12.5" stroke="white" stroke-opacity="0.75"/>
<line x1="120" y1="12.5" x2="130" y2="12.5" stroke="white" stroke-opacity="0.75"/>
<line x1="15" y1="12.5" x2="25" y2="12.5" stroke="white" stroke-opacity="0.75"/>
<line x1="135" y1="12.5" x2="145" y2="12.5" stroke="white" stroke-opacity="0.75"/>
<line x1="30" y1="12.5" x2="40" y2="12.5" stroke="white" stroke-opacity="0.75"/>
<line x1="150" y1="12.5" x2="160" y2="12.5" stroke="white" stroke-opacity="0.75"/>
<line x1="45" y1="12.5" x2="55" y2="12.5" stroke="white" stroke-opacity="0.75"/>
<line x1="165" y1="12.5" x2="175" y2="12.5" stroke="white" stroke-opacity="0.75"/>
<line x1="60" y1="12.5" x2="70" y2="12.5" stroke="white" stroke-opacity="0.75"/>
<line x1="180" y1="12.5" x2="190" y2="12.5" stroke="white" stroke-opacity="0.75"/>
<line x1="210" y1="12.5" x2="220" y2="12.5" stroke="white" stroke-opacity="0.75"/>
<line x1="75" y1="12.5" x2="85" y2="12.5" stroke="white" stroke-opacity="0.75"/>
<line x1="195" y1="12.5" x2="205" y2="12.5" stroke="white" stroke-opacity="0.75"/>
<line x1="225" y1="12.5" x2="235" y2="12.5" stroke="white" stroke-opacity="0.75"/>
<line x1="90" y1="12.5" x2="100" y2="12.5" stroke="white" stroke-opacity="0.75"/>
<line x1="105" y1="12.5" x2="115" y2="12.5" stroke="white" stroke-opacity="0.75"/>
<path d="M251.478 9.4497C251.265 9.4497 251.058 9.51128 250.881 9.62665C250.704 9.74202 250.567 9.906 250.485 10.0979C250.404 10.2897 250.383 10.5008 250.424 10.7045C250.466 10.9082 250.568 11.0952 250.718 11.2421C250.868 11.3889 251.06 11.4889 251.268 11.5294C251.477 11.57 251.693 11.5492 251.889 11.4697C252.086 11.3902 252.253 11.2556 252.372 11.083C252.49 10.9103 252.553 10.7073 252.553 10.4997C252.553 10.2212 252.439 9.95413 252.238 9.75723C252.036 9.56032 251.763 9.4497 251.478 9.4497ZM255.776 9.4497C255.564 9.4497 255.356 9.51128 255.179 9.62665C255.003 9.74202 254.865 9.906 254.784 10.0979C254.702 10.2897 254.681 10.5008 254.723 10.7045C254.764 10.9082 254.866 11.0952 255.017 11.2421C255.167 11.3889 255.358 11.4889 255.567 11.5294C255.775 11.57 255.991 11.5492 256.188 11.4697C256.384 11.3902 256.552 11.2556 256.67 11.083C256.788 10.9103 256.851 10.7073 256.851 10.4997C256.851 10.2212 256.738 9.95413 256.536 9.75723C256.335 9.56032 256.062 9.4497 255.776 9.4497ZM260.075 9.4497C259.862 9.4497 259.655 9.51128 259.478 9.62665C259.301 9.74202 259.163 9.906 259.082 10.0979C259.001 10.2897 258.98 10.5008 259.021 10.7045C259.062 10.9082 259.165 11.0952 259.315 11.2421C259.465 11.3889 259.657 11.4889 259.865 11.5294C260.074 11.57 260.29 11.5492 260.486 11.4697C260.683 11.3902 260.85 11.2556 260.968 11.083C261.087 10.9103 261.15 10.7073 261.15 10.4997C261.15 10.2212 261.036 9.95413 260.835 9.75723C260.633 9.56032 260.36 9.4497 260.075 9.4497ZM255.776 0.00012207C254.365 0.00012207 252.968 0.271701 251.664 0.799352C250.36 1.327 249.176 2.10039 248.178 3.07536C246.162 5.04441 245.03 7.71501 245.03 10.4997C245.021 12.9241 245.88 15.2754 247.459 17.1459L245.31 19.2458C245.161 19.3934 245.06 19.5809 245.019 19.7846C244.979 19.9883 245.002 20.199 245.084 20.3902C245.173 20.5791 245.318 20.7379 245.5 20.8463C245.681 20.9547 245.892 21.0079 246.105 20.9992H255.776C258.627 20.9992 261.36 19.893 263.375 17.924C265.391 15.9549 266.523 13.2843 266.523 10.4997C266.523 7.71501 265.391 5.04441 263.375 3.07536C261.36 1.10632 258.627 0.00012207 255.776 0.00012207ZM255.776 18.8993H248.695L249.694 17.9228C249.796 17.8256 249.876 17.7096 249.932 17.5817C249.987 17.4537 250.016 17.3163 250.017 17.1774C250.012 16.9004 249.897 16.6362 249.694 16.4424C248.287 15.0691 247.411 13.2616 247.215 11.3279C247.019 9.39411 247.515 7.45375 248.619 5.83736C249.723 4.22098 251.366 3.02856 253.269 2.46328C255.172 1.89801 257.216 1.99483 259.054 2.73726C260.892 3.47969 262.41 4.8218 263.349 6.53492C264.288 8.24804 264.589 10.2262 264.203 12.1323C263.816 14.0385 262.765 15.7547 261.229 16.9886C259.692 18.2225 257.765 18.8978 255.776 18.8993Z" fill="white"/>
</svg>
