<svg width="25" height="22" viewBox="0 0 25 22" fill="none" xmlns="http://www.w3.org/2000/svg">
<path d="M12.5325 0C6.16138 0 0.978027 4.93465 0.978027 11.0001C0.978027 17.0656 6.16138 22.0002 12.5325 22.0002C18.9037 22.0002 24.087 17.0656 24.087 11.0001C24.087 4.93465 18.9037 0 12.5325 0ZM12.5325 19.8002C7.43584 19.8002 3.28893 15.8523 3.28893 11.0001C3.28893 6.14797 7.43584 2.20002 12.5325 2.20002C17.6292 2.20002 21.7761 6.14797 21.7761 11.0001C21.7761 15.8523 17.6292 19.8002 12.5325 19.8002Z" fill="black"/>
<path d="M15.8001 14.1112C15.1623 14.7199 14.3507 15.1369 13.4661 15.3102C12.8498 15.4279 12.2152 15.4279 11.5989 15.3102C11.3025 15.2516 11.0127 15.1661 10.7335 15.055C10.4593 14.9435 10.1967 14.808 9.94892 14.6502C9.45769 14.3313 9.03363 13.9276 8.69872 13.46L6.78299 14.6887C7.03141 15.0396 7.31681 15.3696 7.62993 15.6666C8.27284 16.2807 9.03673 16.768 9.87782 17.1006C10.7189 17.4332 11.6207 17.6045 12.5314 17.6047C13.4422 17.6049 14.3441 17.434 15.1853 17.1018C16.0266 16.7696 16.7907 16.2826 17.4339 15.6688C17.7482 15.3707 18.0347 15.0407 18.282 14.6887L16.3663 13.46C16.2011 13.6921 16.0116 13.911 15.8001 14.1112Z" fill="black"/>
<path d="M8.48845 11.0001C9.44566 11.0001 10.2216 10.2614 10.2216 9.35005C10.2216 8.43872 9.44566 7.69995 8.48845 7.69995C7.53125 7.69995 6.75528 8.43872 6.75528 9.35005C6.75528 10.2614 7.53125 11.0001 8.48845 11.0001Z" fill="black"/>
<path d="M16.5766 8.80054C14.2657 8.80054 13.688 11.0002 13.688 11.0002H19.4652C19.4652 11.0002 18.8863 8.80054 16.5766 8.80054Z" fill="black"/>
</svg>
