<svg width="24" height="24" viewBox="0 0 24 24" fill="none" xmlns="http://www.w3.org/2000/svg">
<path d="M12 1.5C9.9233 1.5 7.89323 2.11581 6.16652 3.26957C4.4398 4.42332 3.09399 6.0632 2.29927 7.98182C1.50455 9.90045 1.29661 12.0116 1.70176 14.0484C2.1069 16.0852 3.10693 17.9562 4.57538 19.4246C6.04383 20.8931 7.91476 21.8931 9.95156 22.2982C11.9884 22.7034 14.0996 22.4955 16.0182 21.7007C17.9368 20.906 19.5767 19.5602 20.7304 17.8335C21.8842 16.1068 22.5 14.0767 22.5 12C22.4968 9.2162 21.3896 6.54733 19.4211 4.57889C17.4527 2.61044 14.7838 1.50318 12 1.5Z" fill="white"/>
<path d="M11.616 12.189C11.5215 12.3937 11.4173 12.6232 11.31 12.864C10.9212 13.7001 10.6002 14.5662 10.35 15.4537C10.2879 15.7382 10.258 16.0288 10.2608 16.32C10.2608 16.4505 10.2675 16.587 10.2788 16.7265C11.3442 17.119 12.5116 17.1368 13.5885 16.7767C13.4693 16.6693 13.3589 16.5524 13.2585 16.4272C12.5835 15.5677 12.2085 14.307 11.613 12.1882" fill="#91DC47"/>
<path d="M9.12675 7.91699C8.47268 8.37538 7.93773 8.98358 7.56657 9.69081C7.19541 10.398 6.9988 11.1838 6.99315 11.9825C6.9875 12.7812 7.17297 13.5696 7.53409 14.282C7.8952 14.9944 8.42148 15.6101 9.069 16.0777C9.37725 14.7952 10.149 13.6207 11.3062 11.2665C11.2372 11.0775 11.1562 10.8712 11.0715 10.6537C10.7913 9.87298 10.386 9.14297 9.8715 8.49224C9.65013 8.2658 9.39758 8.0721 9.1215 7.91699" fill="#91DC47"/>
<path d="M16.38 17.775C15.8048 17.7176 15.2374 17.5992 14.6872 17.4218C13.3755 18.0749 11.8708 18.2277 10.4545 17.8518C9.03829 17.4758 7.80751 16.5967 6.99243 15.379C6.17735 14.1613 5.83381 12.6884 6.02607 11.2358C6.21832 9.78312 6.93321 8.45027 8.037 7.48653C7.69338 7.40195 7.34087 7.35889 6.987 7.35828C5.2185 7.37478 3.351 8.35353 2.574 10.9973C2.52035 11.3347 2.50175 11.6768 2.5185 12.018C2.51787 14.0347 3.15989 15.999 4.35139 17.626C5.54288 19.2531 7.22184 20.458 9.14461 21.0661C11.0674 21.6742 13.1339 21.6538 15.0443 21.0078C16.9546 20.3618 18.6094 19.1238 19.7685 17.4735C18.9231 17.69 18.0551 17.8055 17.1825 17.8178C16.9144 17.8197 16.6464 17.8054 16.38 17.775Z" fill="#63B132"/>
<path d="M14.5972 15.933C14.7188 15.9853 14.8442 16.0284 14.9722 16.062C15.608 15.5963 16.1251 14.9875 16.4818 14.2848C16.8384 13.5821 17.0245 12.8052 17.025 12.0172C17.026 11.2229 16.8382 10.4398 16.4771 9.73241C16.1159 9.02501 15.5918 8.41358 14.9479 7.94857C14.304 7.48355 13.5588 7.17826 12.7737 7.05789C11.9886 6.93751 11.1861 7.00548 10.4325 7.25621C11.451 8.41721 11.9407 10.077 12.4147 11.892C12.8887 13.707 12.5647 12.3967 12.825 13.0635C13.0946 13.793 13.4371 14.4936 13.8472 15.1545C14.0286 15.4719 14.2864 15.739 14.5972 15.9315" fill="#90B4FE"/>
<path d="M12.0097 2.52906C10.5017 2.52822 9.01531 2.88737 7.67405 3.57665C6.3328 4.26594 5.17545 5.26544 4.29825 6.49206C5.07763 5.99464 5.98366 5.73194 6.90825 5.73531C7.73903 5.73105 8.55828 5.92981 9.29475 6.31431C9.39525 6.37206 9.4905 6.43431 9.58425 6.49881C10.5018 6.0954 11.5055 5.92716 12.5045 6.00929C13.5035 6.09143 14.4662 6.42136 15.3056 6.96922C16.1449 7.51709 16.8345 8.2656 17.3117 9.14702C17.789 10.0284 18.039 11.015 18.039 12.0173C18.0399 12.8155 17.8818 13.6059 17.5739 14.3424C17.266 15.0788 16.8145 15.7465 16.2457 16.3066C16.5303 16.3391 16.8166 16.3552 17.103 16.3546C18.1953 16.4034 19.2702 16.0683 20.1412 15.4073C20.7898 14.837 21.237 14.0726 21.4162 13.2278C21.5906 11.8905 21.4774 10.5315 21.0843 9.24145C20.6912 7.95143 20.0272 6.76021 19.1368 5.74741C18.2463 4.73462 17.1499 3.9236 15.9208 3.36859C14.6917 2.81357 13.3583 2.52735 12.0097 2.52906Z" fill="#5881D8"/>
</svg>
